<?xml version="1.0" standalone="no"?>
<!DOCTYPE svg PUBLIC "-//W3C//DTD SVG 20010904//EN"
 "http://www.w3.org/TR/2001/REC-SVG-20010904/DTD/svg10.dtd">
<svg version="1.0" xmlns="http://www.w3.org/2000/svg"
 width="264.000000pt" height="264.000000pt" viewBox="0 0 264.000000 264.000000"
 preserveAspectRatio="xMidYMid meet">
<metadata>
Created by potrace 1.11, written by Peter Selinger 2001-2013
</metadata>
<g transform="translate(0.000000,264.000000) scale(0.100000,-0.100000)"
fill="#000000" stroke="none">
<path d="M943 2633 l-933 -3 0 -1310 0 -1310 1310 0 1310 0 0 1310 0 1310
-349 0 c-192 0 -361 1 -377 3 -16 1 -449 1 -961 0z m1667 -272 l0 -248 -50
-47 -49 -46 -133 0 -132 0 -328 -327 -328 -327 -2 324 -3 325 -102 3 -103 3 0
-696 0 -695 105 0 105 0 1 243 2 242 99 95 c99 95 100 95 117 74 10 -12 118
-164 240 -338 l223 -316 127 0 128 0 41 -56 42 -57 0 -243 0 -244 -462 2 -462
3 -204 285 c-112 157 -206 292 -209 300 -4 8 -54 80 -113 160 -59 80 -190 263
-293 407 l-186 262 602 580 602 581 363 0 362 0 0 -249z m-12 -1402 l-3 -372
-323 427 c-178 235 -322 431 -320 436 2 6 147 145 323 310 l320 300 3 -364 c1
-201 1 -532 0 -737z m-2308 684 l0 -348 348 348 348 348 101 -3 100 -3 -274
-264 c-150 -146 -272 -270 -269 -276 2 -7 85 -122 183 -256 254 -346 383 -526
383 -533 0 -3 -44 -6 -97 -6 l-98 1 -235 335 c-129 184 -241 340 -248 346 -10
9 -38 -14 -128 -103 l-114 -114 0 -232 0 -233 -80 0 -80 0 0 670 0 670 80 0
80 0 0 -347z"/>
</g>
</svg>
